<?xml version="1.0" encoding="utf-8"?>
<!-- Generator: Adobe Illustrator 27.6.1, SVG Export Plug-In . SVG Version: 6.00 Build 0)  -->
<svg version="1.1" id="Layer_1" xmlns="http://www.w3.org/2000/svg" xmlns:xlink="http://www.w3.org/1999/xlink" x="0px" y="0px"
	 viewBox="0 0 64 64" style="enable-background:new 0 0 64 64;" xml:space="preserve">
<style type="text/css">
	.st0{fill:#FFFFFF;}
</style>
<g id="Layer_2_00000158029372510716414120000012680685648114155940_">
	<rect y="-0.1" width="64" height="64"/>
</g>
<g id="_x23_ffffffff_00000090974933735041241200000001087064829001805228_">
	<path class="st0" d="M29.5,4.3c0.3-0.1,0.6-0.1,0.9-0.1c0.9,0,1.7,0.2,2.5,0.5c1,0.4,1.8,0.9,2.6,1.6c0.7,0.8,1.4,1.5,2.4,1.9
		c-0.4-0.7-0.9-1.2-1.4-1.6c-0.2-0.1-0.2-0.5,0.1-0.6c0.1,0,0.3,0.1,0.4,0.2c0.9,0.5,1.7,1.2,2.3,1.9c0-0.3,0.1-0.7,0.2-1
		c0-0.2,0.3-0.3,0.5-0.2c0.1,0.1,0.2,0.3,0.2,0.4c0,0.8,0.3,1.4,0.5,2.1c0.2,0.6,0.8,1,1.3,1.3c0.4,0.2,0.9,0.5,1.3,0.6
		c0-0.2,0.2-0.4,0.4-0.3c1.6,0.3,3.3,0.9,4.7,1.7c0.8,0.5,1.3,1.4,1.5,2.3c0.3,1.1,0.4,2.1,0.4,3.2c2.2,2,3.9,4.5,5,7.3
		c0.7,1.6,1.1,3.4,1.3,5.2c0.1,0.8,0.1,1.4,0,2.2c-0.1,1.3-0.6,2.7-1.4,3.8c-0.6,0.7-1.3,1.3-2,1.7c-0.2,0.1-0.4,0.2-0.6,0.2
		c-0.3-0.1-0.3-0.5-0.1-0.6c0.3-0.2,0.5-0.4,0.7-0.5c-0.5,0.3-1,0.4-1.5,0.6c-0.2,0.1-0.4-0.1-0.5-0.2c-0.5,1.4-1,3-1.4,4.4
		c-0.7,1.9-1.8,3.7-3.1,5.2c-0.5,1.4-0.9,2.9-1.4,4.2c-0.8,1.8-1.7,3.6-3.1,5c-0.4,0.4-0.9,0.8-1.3,1.1c-1.2,0.8-2.2,1.6-3.5,1.9
		C36.3,60,35.6,60,34.8,60c-1.1-0.1-2.1-0.5-3.3-0.4c-0.5-0.1-1,0-1.4,0c-1,0-1.9-0.2-2.8-0.6c-0.9-0.4-1.7-0.8-2.4-1.4
		c-0.3-0.3-0.6-0.6-0.9-0.8s-0.6-0.3-0.9-0.4c-1.8-0.6-3.7-1.5-5.2-2.9c-0.9-0.8-1.5-1.6-2-2.7c-0.6-1.3-0.8-2.8-1.1-4.2
		c-0.9-0.3-1.7-0.9-2.3-1.6c-0.3-0.4-0.5-0.8-0.7-1.2c-0.3-0.7-0.4-1.3-0.4-2c-0.1-0.5-0.2-0.9-0.3-1.3c-0.1-0.4-0.3-0.7-0.4-1.1
		c-0.2-0.7-0.4-1.3-0.4-1.9c0-0.7,0-1.4,0.1-2.1C9.3,34,8.5,32,8,30.2c-0.2-0.7-0.2-1.3-0.2-2C8,27.4,8.3,26.7,8.8,26
		c-0.2-1.3-0.1-2.6,0.3-3.8c0.4-0.8,0.9-1.3,1.4-1.9c0.9-1,1.9-1.8,2.9-2.6c-0.3,0-0.5,0.1-0.8,0s-0.3-0.5-0.1-0.6s0.4-0.1,0.6-0.2
		c0.9-0.4,1.6-0.9,2.4-1.4c2.7-1.9,5.5-3.6,8.3-5.2c1.3-0.8,2.7-1.6,4.2-2.2c0-0.1-0.1-0.2-0.1-0.3c0-0.3,0.3-0.4,0.5-0.6
		c1-0.8,2.2-1.3,3.5-1.3c-0.8-0.3-1.6-0.6-2.4-0.7C29.2,4.8,29.2,4.4,29.5,4.3 M29.6,4.6c0.4,0.1,0.9,0.1,1.3,0.3
		c1,0.3,1.9,0.7,2.7,1.3C32.9,6,32.2,5.9,31.4,6c-1.2,0.1-2.2,0.8-3.1,1.4c1.5-0.9,3.4-0.8,4.9,0c-0.7-0.2-1.3-0.2-2.1-0.1
		c-1.3,0.1-2.4,0.5-3.6,1.1c-1.1,0.5-2.1,1.2-3.2,1.7c-2.3,1.3-4.5,2.6-6.7,4.1c-1.3,0.8-2.3,1.6-3.7,2.4c-0.3,0-0.8,0.3-1.3,0.4
		c0.6,0,1.1-0.1,1.6-0.1c-1.4,1.2-2.9,2.3-4,3.7c-0.5,0.5-0.9,1.1-1.1,1.7c-0.3,1.2-0.4,2.4-0.2,3.6C8.4,26.8,8,27.8,8.1,29
		c0,0.6,0.3,1.2,0.5,1.8c0.6,1.5,1.3,3.1,2.3,4.3c-0.2,1.3-0.2,2.5,0.1,3.7c0.2,0.6,0.5,1.2,0.6,1.7c0.2,0.6,0.2,1.3,0.3,1.9
		c0.1,0.9,0.5,1.6,0.9,2.3c0.6,0.8,1.3,1.3,2.3,1.6c0.2,1.4,0.5,2.9,1,4.2c0.4,1.2,1.3,2.1,2.1,2.9c1.3,1.1,2.8,1.9,4.4,2.5
		c0.6,0.2,1.3,0.4,1.7,0.9c0.3,0.2,0.5,0.5,0.7,0.7c0.5,0.4,1,0.7,1.4,0.9c1.1,0.5,2.2,0.9,3.5,0.9c0.5,0,1-0.1,1.4,0
		c1.3,0,2.6,0.5,3.9,0.5c0.8,0,1.5-0.2,2.2-0.5c1-0.5,1.8-1.2,2.7-1.7c1-0.6,1.7-1.5,2.4-2.4c0.9-1.3,1.5-2.5,2-3.8
		c0.5-1.3,0.8-2.5,1.3-3.8c1.3-1.6,2.6-3.5,3.2-5.5c0.6-1.4,1.1-3,1.5-4.5c1.2-0.4,2.2-1.1,3-1.9c0.4-0.4,0.6-0.9,0.9-1.3
		c-0.1,0.7-0.4,1.3-0.9,1.8c-0.7,0.9-1.5,1.4-2.5,1.8c1.3-0.4,2.7-1,3.6-2.1c-0.6,1.1-1.3,1.9-2.3,2.6c1.3-0.6,2.4-1.6,3-3
		c0.5-1.2,0.7-2.4,0.6-3.7c-0.1-1.8-0.5-3.7-1.1-5.3c-1.1-3-2.9-5.7-5.2-7.8c0-1.1,0-2-0.3-3.1c-0.2-0.9-0.7-1.8-1.5-2.4
		c-1.3-0.8-2.9-1.3-4.5-1.6c0.3,0.3,0.7,0.5,1,0.8c-0.5-0.1-1.1-0.3-1.5-0.5c-0.8-0.3-1.5-0.7-2.1-1.3c-0.3-0.3-0.5-0.6-0.6-1
		c0-0.9-0.2-1.5-0.2-2.3c-0.2,0.8-0.1,1.6,0.1,2.4c-0.2-0.4-0.5-0.9-0.8-1.3c-0.7-0.9-1.5-1.6-2.5-2.1c0.8,0.6,1.5,1.3,1.8,2.3
		c-0.4,0-0.8-0.2-1.2-0.4c-0.9-0.5-1.5-1.2-2.1-1.9C33.7,5.1,31.6,4.5,29.6,4.6z"/>
	<path class="st0" d="M33.5,8.5c1.1,0,2.2,0.3,3.1,0.9c0.7,0.4,1.3,1,1.6,1.7c-0.6,0.2-1.2,0.2-1.8,0.2c-0.5,0-1-0.1-1.4-0.2
		c1.3,0.4,2.7,0.6,4,0.6c-1.4,0.3-2.9,0.2-4.3,0c-0.7-0.1-1.3-0.4-2-0.4c-1.8-0.1-3.6,0.5-5.1,1.4c1-1,2.3-1.5,3.7-1.8
		c1.2-0.2,2.4-0.3,3.7-0.1c-0.2-0.1-0.4-0.1-0.6-0.1c-1-0.2-1.8-0.4-2.8-0.8c-0.4-0.1-0.7-0.3-1.2-0.4c-0.8-0.1-1.5,0.1-2.2,0.4
		c-0.9,0.4-1.8,1-2.8,1.6c0.9-0.9,1.7-1.6,2.8-2.2c0.8-0.4,1.6-0.7,2.5-0.7c0.9,0,1.7,0.2,2.5,0.5c0.7,0.3,1.3,0.5,2.1,0.6
		c0.2,0,0.5,0,0.7-0.1C35.2,9.2,34.4,8.7,33.5,8.5z"/>
	<path class="st0" d="M29.3,13.1c0.9-0.6,1.8-1.1,2.9-1.1c1.6,0,3.3,0.7,4.8,0.9c1.1,0.2,2.2,0.1,3.3-0.4c-0.9,0.9-2,1.3-3.3,1.4
		c-1.3,0.1-2.4,0.6-3.4,1.4c0.4-0.7,1-1.3,1.6-1.6C34,14,32.8,14.6,32,15.5c-0.8,0.9-1.4,1.8-2.1,2.7c-0.2,0.3-0.4,0.5-0.5,0.8
		c-0.6,1.1-1.4,1.9-2.5,2.5c0.9-0.1,1.7-0.6,2.4-1.1c0.5-0.4,1-0.9,1.3-1.3c0.4-0.4,0.7-0.9,1-1.3c1.4-1.5,3.4-2.6,5.4-3
		c-0.7,0.7-1.6,1-2.5,1.3c1.2,0.1,2.4,0,3.4-0.6c0.9-0.6,1.5-1.3,2.2-2.2c0.5,0.8,1.2,1.4,1.8,2c0.6,0.5,1.2,0.9,1.8,1.1
		c0.9,0.3,1.6,0.9,2.2,1.6c0.7,0.8,1.3,1.7,1.8,2.7c0.4,0.7,0.7,1.3,0.9,2c0.2,1.3-0.1,2.5-0.8,3.5c0.5-0.4,0.9-0.9,1.1-1.4
		c0.2,1-0.1,1.9-0.6,2.8c-0.2,0.4-0.5,0.7-0.8,1.1c0.7-0.6,1.3-1.3,1.7-1.9c-0.3,1.2-0.9,2.3-1.8,3.1c0.6-0.3,1.2-0.6,1.7-0.9
		c-0.8,0.6-1.2,1.5-1.2,2.4c-1.7-0.7-3.7-0.9-5.6-0.9c-0.9,0-1.8,0-2.7,0.3c-0.6,0.2-1,0.6-1.3,1.1c-1.3-0.6-2.9-0.6-4.3-0.3
		c-0.3-0.8-0.9-1.4-1.6-1.7c-0.8-0.3-1.5-0.4-2.3-0.4c-1.4-0.1-3,0-4.4,0.2c-0.8,0.1-1.5,0.3-2.2,0.7c-0.6,0.3-1,0.8-1.2,1.3
		c-1.2,0-2.3-0.3-3.5-0.5c0.4-1.3,0.8-2.7,0.8-4.1c0-0.5-0.1-1-0.1-1.4c0-1.3,0.2-2.4,0.6-3.6c0.3-1,0.8-1.9,1.3-2.8
		c0,0.8-0.2,1.5-0.6,2.1c0.9-0.2,1.7-0.7,2.2-1.3c0.2-0.2,0.3-0.5,0.4-0.7c-0.3,1-1.2,1.6-2,2.1c1.3-0.3,2.3-1.1,3.1-2
		c-0.5,0.8-1.1,1.4-1.8,1.9c1.2-0.3,2.1-1,2.9-1.8c1-1.1,2.1-1.9,3.4-2.6c-0.8,1.8-2,3.4-3.6,4.4c1-0.5,1.8-1.1,2.5-1.8
		c-0.8,1.2-1.9,2-3.3,2.5c1.8-0.4,3.6-1.4,4.5-3.1c-0.4,0.5-0.9,1-1.3,1.3c1.3-1.3,2.3-2.9,3.2-4.5c-1.2,0.8-1.9,2-2.6,3.2
		c0.3-1,0.8-1.8,1.3-2.6c0.7-1,1.5-1.8,2.6-2.4c-1.6,0.7-3.2,1.5-4.4,2.9c-1.3,1.2-2.7,2.1-4.2,2.8c1.4-0.9,2.8-2.1,3.8-3.4
		c0.5-0.5,0.8-1.1,1.3-1.5c1.3-1.3,3.3-1.8,5.1-1.7c-1.1-0.4-2.2-0.5-3.3-0.2c-1.3,0.3-2.3,1-3.3,1.8c-0.2,0.2-0.4,0.4-0.6,0.6
		C27.7,14.4,28.5,13.7,29.3,13.1 M27.2,22.4c-0.6,0-1.3,0.2-1.8,0.4c0.1-0.1,0.2-0.2,0.3-0.3c-0.6,0.2-1.2,0.4-1.6,0.8
		c-0.3,0.3-0.5,0.7-0.7,1c-0.3,0.7-0.5,1.3-0.7,2c0.4-0.6,0.8-1.2,1.3-1.5c-0.5,0.4-0.9,0.9-1.2,1.4c0.6-0.6,1.3-1.2,2.1-1.4
		c1.1-0.4,2.3-0.6,3.5-0.6c-0.1-0.1-0.3-0.2-0.4-0.3c1-0.1,1.9,0,2.9,0.3l0,0l0,0h0.1c0.2,0,0.3,0.1,0.5,0.2c0.3,0.1,0.7,0.1,1,0.1
		c-0.2-0.1-0.4-0.3-0.6-0.4c0.4,0.1,0.7,0.2,1,0.5c-0.2-0.3-0.4-0.6-0.7-0.9c0.4,0.3,0.7,0.6,0.9,0.9c0.1,0,0.2-0.1,0.3-0.1
		c-0.3-0.5-0.7-0.9-1-1.3c-0.4-0.4-0.8-0.7-1.3-0.8c-0.8-0.1-1.5-0.1-2.3,0c0.2-0.1,0.4-0.2,0.5-0.4C28.6,22.2,28,22.4,27.2,22.4
		 M41.2,23c0.2,0.2,0.4,0.3,0.6,0.5c-0.5-0.2-1.1-0.2-1.5,0.1c-0.5,0.4-0.7,0.9-1,1.4c0.4-0.5,0.9-0.8,1.4-1c-0.4,0.3-0.8,0.6-1,1
		c0.8-0.1,1.5-0.3,2.3-0.2c0.6,0,1.1,0.4,1.5,0.6c-0.1-0.1-0.1-0.3-0.1-0.4c0.5,0.7,1.3,1.2,2,1.5s1.4,1.1,1.7,1.8c0-0.3,0-0.7,0-1
		c0.1,0.6,0.3,1.2,0.4,1.7c-0.1-1.3-0.2-2.5-0.7-3.7c-0.2-0.5-0.5-1-1-1.3c-0.9-0.5-1.8-0.5-2.8-0.5c0.2-0.1,0.3-0.2,0.5-0.3
		c-0.6,0-1.3,0-1.8-0.1C41.6,23.2,41.4,23,41.2,23z"/>
	<path class="st0" d="M48,18.4c0.7,0.4,1.3,1,1.7,1.4c0.9,0.9,1.5,1.9,1.8,3.1c0.3,1,0.2,2.1,0,3.1c-0.3,1.3-1,2.6-2.1,3.4
		c1.3-1.3,1.6-3.3,1.4-5.1c-0.1,1.7-1,3.3-2.1,4.4c0.8-1,1.3-2.1,1.4-3.4c0.2-1.1,0-2.1-0.3-3.1c-0.5-1.3-1.3-2.4-2.2-3.3
		c1.5,0.9,2.7,2.4,3.3,4C50.4,21.3,49.4,19.5,48,18.4z"/>
	<path class="st0" d="M18.1,22.7c0.2-0.9,0.6-1.8,1.2-2.6c-0.3,0.7-0.4,1.3-0.4,2.1c-0.1,1.3,0,2.6-0.3,3.8
		c-0.2,1.2-0.6,2.3-1.2,3.4c0.3-1.3,0.5-2.8,0.6-4.1c-0.7,0.7-1.1,1.6-1.3,2.6c-0.2,1-0.1,1.8,0,2.8C16.1,29.2,16,27.6,16,26
		c0.1-1.5,0.6-3.2,1.5-4.4c-0.6,1.1-0.7,2.2-0.8,3.4c0,0.4,0,0.8,0,1.2c0.5-0.7,0.8-1.3,1-2.1C18,23.6,18,23.2,18.1,22.7z"/>
	<path class="st0" d="M12.3,26.2c1-2.1,2.5-3.9,4.4-5.3c-0.8,1-1.4,2-2,3.1c-0.5,1-1,2-1.2,3.2c-0.3,1.3-0.2,2.7,0.2,3.9
		c0.4,1.3,1,2.6,1.8,3.8c-0.9-0.8-1.6-1.6-2.2-2.6c-0.7-1.2-1-2.5-0.9-3.8c-0.4,1.2-0.4,2.4-0.1,3.6c0.3,1.5,1,3,1.7,4.3
		c-1.6-1.4-2.7-3.5-2.8-5.7C11.2,29.1,11.6,27.5,12.3,26.2z"/>
	<path class="st0" d="M51.5,21.3c1.2,1.3,1.9,2.7,2.6,4.3c0.6,1.6,1,3.5,0.8,5.2c-0.1,1.3-0.6,2.5-1.3,3.5c-0.7,0.9-1.5,1.5-2.5,2.1
		c0.8-0.8,1.5-1.7,2.1-2.7c0.5-0.8,0.9-1.5,1.1-2.4c-0.8,1.8-1.9,3.4-3.6,4.4c1-1,1.8-2.2,2.4-3.5c0.7-1.6,1-3.6,0.6-5.3
		c0.1,1.7-0.9,3.4-2.1,4.4c-0.5,0.5-1.1,0.8-1.5,1.2c1.1-1.2,1.9-2.4,2.5-3.8c0.6-1.3,0.8-2.7,0.6-4.1
		C52.9,23.4,52.3,22.2,51.5,21.3z"/>
	<path class="st0" d="M27.7,30.2c1.1-0.1,2-0.1,3.1,0c0.7,0.1,1.4,0.1,2,0.5c0.5,0.3,0.8,0.8,0.9,1.3c0.3,1.2,0,2.4-0.6,3.5
		c-0.3,0.6-0.8,1.1-1.3,1.3c-0.5,0.3-1.2,0.5-1.7,0.6c-1.4,0.3-3,0.3-4.4,0c-0.8-0.2-1.5-0.5-1.9-1.3c-0.6-0.9-0.8-1.9-0.7-2.9
		c0-0.7,0.2-1.4,0.6-1.9c0.3-0.3,0.7-0.5,1-0.6C25.7,30.4,26.7,30.3,27.7,30.2z"/>
	<path class="st0" d="M49.1,30.3c-0.1,0.5-0.2,0.9-0.3,1.3c-0.1-0.1-0.2-0.1-0.3-0.2C48.8,31.1,48.9,30.7,49.1,30.3z"/>
	<path class="st0" d="M41.2,31.4c1.3-0.1,2.8-0.1,4.1,0.1c1.1,0.1,2,0.3,3,0.8c0.6,0.3,0.8,0.9,0.9,1.4c0.2,1.1,0.1,2.1-0.3,3.1
		c-0.2,0.6-0.5,1.1-1,1.3c-0.8,0.5-1.6,0.7-2.5,0.7c-1.1,0.1-2.2-0.1-3.3-0.4c-0.7-0.2-1.3-0.5-1.8-1c-0.9-0.9-1.3-2-1.3-3.2
		c0-0.8,0.1-1.5,0.6-2.1C39.9,31.8,40.6,31.5,41.2,31.4z"/>
	<path class="st0" d="M34.6,32.3c1.3-0.2,2.6-0.2,3.8,0.3c-0.4,1.3-0.3,2.6,0.2,3.8c0.4,1.1,1.1,1.9,2.1,2.4
		c1.7,0.8,3.7,1.1,5.5,0.8c0.8-0.1,1.4-0.3,2.1-0.7c-0.1,0.3-0.1,0.6-0.2,0.9c-1.3,2.3-2.1,4.8-2.7,7.3c-0.4,1.3-0.8,2.7-1.4,3.9
		c-0.6,1.1-1.3,2-1.9,2.9c-0.8,1.1-1.6,2.1-2.7,2.9c-0.8,0.7-1.7,1.3-2.8,1.4c-0.6,0.1-1.2,0.1-1.7-0.1c-0.5-0.1-1-0.5-1.4-0.6
		c-0.9-0.2-1.7,0-2.6,0.1c-1,0.1-2,0.1-3-0.3c-1-0.4-1.7-1-2.3-1.7c-0.6-0.7-1.4-1.1-2.2-1.4c-1.3-0.5-2.5-0.8-3.7-1.4
		c-0.9-0.5-1.4-1.3-2-2.1c-0.9-1.3-1.5-2.6-1.9-4c-0.2-0.5-0.3-1.1-0.4-1.6c-0.2-0.5-0.2-1.1-0.3-1.5c-0.2,0.5-0.1,1,0,1.4
		c-0.8-0.2-1.6-0.7-1.9-1.4c-0.5-1.1-0.3-2.3-0.9-3.5c-0.2-0.4-0.4-0.7-0.5-1.2c-0.2-1.1-0.1-2.1,0-3.2c0.3,0.2,0.5,0.4,0.8,0.6
		c-0.4,0.6-0.5,1.3-0.4,1.9c0.1,0.5,0.5,0.8,0.8,1.1c0.4,0.5,0.5,1.3,1,1.6c0.1,0.1,0.4,0.2,0.5,0c0.2-0.3,0.3-0.8,0.2-1.2
		c-0.1-0.3-0.3-0.5-0.4-0.8c-0.2-0.4-0.2-0.8-0.1-1.1c-0.2,0.2-0.4,0.4-0.4,0.6c-0.1,0.5,0,1,0.2,1.3c-0.3-0.5-0.6-1-1-1.4
		c-0.2-0.2-0.4-0.4-0.5-0.7c-0.2-0.5,0-1.1,0.1-1.5c0.6,0.5,1.3,0.9,1.7,1.4c-0.1-0.4-0.2-0.7-0.4-1.1c0.3,0.3,0.6,0.7,0.9,1.1
		c0.2,0.3,0.2,0.7,0.2,1.1c0.1,1.3,0.1,2.5,0.2,3.8c0.6,0.2,1.2,0.3,1.7,0.5c0.1-1.7,0.2-3.4,0.3-5.1c0.1-0.9,0.2-1.7,0.5-2.6
		c0.4-1.1,0.8-2.1,1.2-3.3c1,0.2,1.9,0.3,2.9,0.5c0.3,0,0.5,0,0.8,0c-0.1,1.3,0.1,2.6,0.8,3.7c0.3,0.5,0.8,1,1.3,1.3
		c1,0.5,1.9,0.7,3,0.8c1.4,0.1,3-0.1,4.4-0.6c1-0.4,1.7-1.1,2.2-1.9C34.5,34.8,34.8,33.6,34.6,32.3z"/>
</g>
</svg>
