<?xml version="1.0" encoding="utf-8"?>
<!-- Generator: Adobe Illustrator 27.6.1, SVG Export Plug-In . SVG Version: 6.00 Build 0)  -->
<svg version="1.1" id="Layer_1" xmlns="http://www.w3.org/2000/svg" xmlns:xlink="http://www.w3.org/1999/xlink" x="0px" y="0px"
	 viewBox="0 0 64 64" style="enable-background:new 0 0 64 64;" xml:space="preserve">
<style type="text/css">
	.st0{fill:#FFFFFF;}
</style>
<g id="Layer_2_00000158029372510716414120000012680685648114155940_">
	<rect y="-0.1" class="st0" width="64" height="64"/>
</g>
<g id="_x23_ffffffff">
	<path d="M29.5,3.5c0.4,0.1,0.9,0.1,1.3,0.3c1,0.3,2,0.7,2.8,1.4c-0.7-0.3-1.4-0.4-2.2-0.3c-1.2,0.1-2.3,0.8-3.2,1.5
		c1.6-0.9,3.5-0.8,5.1,0c-0.7-0.2-1.4-0.2-2.2-0.1c-1.3,0.1-2.5,0.5-3.7,1.1c-1.1,0.5-2.2,1.2-3.3,1.8c-2.4,1.4-4.7,2.7-7,4.3
		c-1.3,0.8-2.4,1.7-3.8,2.5c-0.3,0-0.8,0.3-1.3,0.4c0.6,0,1.1-0.1,1.7-0.1c-1.5,1.2-3,2.4-4.2,3.8c-0.5,0.5-0.9,1.1-1.1,1.8
		c-0.3,1.2-0.4,2.5-0.2,3.7c-0.8,0.9-1.2,2-1.1,3.2c0,0.6,0.3,1.2,0.5,1.9c0.6,1.6,1.3,3.2,2.4,4.5c-0.2,1.3-0.2,2.6,0.1,3.8
		c0.2,0.6,0.5,1.2,0.6,1.8c0.2,0.6,0.2,1.3,0.3,2c0.1,0.9,0.5,1.7,0.9,2.4c0.6,0.8,1.4,1.4,2.4,1.7c0.2,1.5,0.5,3,1,4.4
		c0.4,1.2,1.3,2.2,2.2,3c1.3,1.1,2.9,2,4.6,2.6c0.6,0.2,1.3,0.4,1.8,0.9c0.3,0.2,0.5,0.5,0.7,0.7c0.5,0.4,1,0.7,1.5,0.9
		c1.1,0.5,2.3,0.9,3.6,0.9c0.5,0,1-0.1,1.5,0c1.4,0,2.7,0.5,4.1,0.5c0.8,0,1.6-0.2,2.3-0.5c1-0.5,1.9-1.2,2.8-1.8
		c1-0.6,1.8-1.6,2.5-2.5c0.9-1.3,1.6-2.6,2.1-4c0.5-1.3,0.8-2.6,1.3-3.9c1.4-1.7,2.7-3.6,3.3-5.7c0.6-1.5,1.1-3.1,1.6-4.7
		c1.2-0.4,2.3-1.1,3.1-2c0.4-0.4,0.6-0.9,0.9-1.4c-0.1,0.7-0.4,1.4-0.9,1.9c-0.7,0.9-1.6,1.5-2.6,1.9c1.4-0.4,2.8-1,3.7-2.2
		c-0.6,1.1-1.4,2-2.4,2.7c1.4-0.6,2.5-1.7,3.1-3.1c0.5-1.2,0.7-2.5,0.6-3.8c-0.1-1.9-0.5-3.8-1.1-5.5c-1.1-3.1-3-5.9-5.4-8.1
		c0-1.1,0-2.1-0.3-3.2c-0.2-0.9-0.7-1.9-1.6-2.5c-1.4-0.8-3-1.4-4.7-1.7c0.3,0.3,0.7,0.5,1,0.8c-0.5-0.1-1.1-0.3-1.6-0.5
		c-0.8-0.3-1.6-0.7-2.2-1.3c-0.3-0.3-0.5-0.6-0.6-1c0-0.9-0.2-1.6-0.2-2.4c-0.2,0.8-0.1,1.7,0.1,2.5c-0.2-0.4-0.5-0.9-0.8-1.3
		c-0.7-0.9-1.6-1.7-2.6-2.2c0.8,0.6,1.6,1.4,1.9,2.4c-0.4,0-0.8-0.2-1.2-0.4c-0.9-0.5-1.6-1.2-2.2-2C33.7,4,31.6,3.4,29.5,3.5z"/>
	<path class="st0" d="M29.4,3.2c0.3-0.1,0.6-0.1,0.9-0.1c0.9,0,1.8,0.2,2.6,0.5c1,0.4,1.9,0.9,2.7,1.7c0.7,0.8,1.5,1.6,2.5,2
		c-0.4-0.7-0.9-1.2-1.5-1.7c-0.2-0.1-0.2-0.5,0.1-0.6c0.1,0,0.3,0.1,0.4,0.2c0.9,0.5,1.8,1.2,2.4,2c0-0.3,0.1-0.7,0.2-1
		C39.7,6,40,5.9,40.2,6c0.1,0.1,0.2,0.3,0.2,0.4c0,0.8,0.3,1.5,0.5,2.2c0.2,0.6,0.8,1,1.3,1.3c0.4,0.2,0.9,0.5,1.3,0.6
		c0-0.2,0.2-0.4,0.4-0.3c1.7,0.3,3.4,0.9,4.9,1.8c0.8,0.5,1.3,1.5,1.6,2.4c0.3,1.1,0.4,2.2,0.4,3.3c2.3,2.1,4.1,4.7,5.2,7.6
		c0.7,1.7,1.1,3.5,1.3,5.4c0.1,0.8,0.1,1.5,0,2.3c-0.1,1.4-0.6,2.8-1.5,3.9c-0.6,0.7-1.3,1.3-2.1,1.8c-0.2,0.1-0.4,0.2-0.6,0.2
		c-0.3-0.1-0.3-0.5-0.1-0.6c0.3-0.2,0.5-0.4,0.7-0.5c-0.5,0.3-1,0.4-1.6,0.6c-0.2,0.1-0.4-0.1-0.5-0.2c-0.5,1.5-1,3.1-1.5,4.6
		c-0.7,2-1.9,3.8-3.2,5.4c-0.5,1.5-0.9,3-1.5,4.4c-0.8,1.9-1.8,3.7-3.2,5.2c-0.4,0.4-0.9,0.8-1.4,1.1c-1.2,0.8-2.3,1.7-3.6,2
		c-0.7,0.2-1.5,0.2-2.3,0.2c-1.1-0.1-2.2-0.5-3.4-0.4c-0.5-0.1-1,0-1.5,0c-1,0-2-0.2-2.9-0.6c-0.9-0.4-1.8-0.8-2.5-1.5
		c-0.3-0.3-0.6-0.6-0.9-0.8s-0.6-0.3-0.9-0.4c-1.9-0.6-3.8-1.6-5.4-3c-0.9-0.8-1.6-1.7-2.1-2.8c-0.6-1.4-0.8-2.9-1.1-4.4
		c-0.9-0.3-1.8-0.9-2.4-1.7c-0.3-0.4-0.5-0.8-0.7-1.2c-0.3-0.7-0.4-1.4-0.4-2.1c-0.1-0.5-0.2-0.9-0.3-1.4c-0.1-0.4-0.3-0.7-0.4-1.1
		c-0.2-0.7-0.4-1.3-0.4-2s0-1.5,0.1-2.2C8.4,34,7.6,32,7,30.1c-0.2-0.7-0.2-1.4-0.2-2.1c0.2-0.8,0.5-1.6,1.1-2.3
		c-0.2-1.3-0.1-2.7,0.3-4c0.4-0.8,0.9-1.4,1.5-2c0.9-1,2-1.9,3-2.7c-0.3,0-0.5,0.1-0.8,0s-0.3-0.5-0.1-0.6s0.4-0.1,0.6-0.2
		c0.9-0.4,1.7-0.9,2.5-1.5c2.8-2,5.7-3.7,8.6-5.4c1.4-0.8,2.8-1.7,4.4-2.3c0-0.1-0.1-0.2-0.1-0.3c0-0.3,0.3-0.4,0.5-0.6
		c1-0.8,2.3-1.3,3.6-1.4c-0.8-0.3-1.7-0.6-2.5-0.7C29.1,3.7,29.1,3.3,29.4,3.2z M29.5,3.5c0.4,0.1,0.9,0.1,1.3,0.3
		c1,0.3,2,0.7,2.8,1.4c-0.7-0.3-1.4-0.4-2.2-0.3c-1.2,0.1-2.3,0.8-3.2,1.5c1.6-0.9,3.5-0.8,5.1,0c-0.7-0.2-1.4-0.2-2.2-0.1
		c-1.3,0.1-2.5,0.5-3.7,1.1c-1.1,0.5-2.2,1.2-3.3,1.8c-2.4,1.4-4.7,2.7-7,4.3c-1.3,0.8-2.4,1.7-3.8,2.5c-0.3,0-0.8,0.3-1.3,0.4
		c0.6,0,1.1-0.1,1.7-0.1c-1.5,1.2-3,2.4-4.2,3.8c-0.5,0.5-0.9,1.1-1.1,1.8c-0.3,1.2-0.4,2.5-0.2,3.7c-0.8,0.9-1.2,2-1.1,3.2
		c0,0.6,0.3,1.2,0.5,1.9c0.6,1.6,1.3,3.2,2.4,4.5c-0.2,1.3-0.2,2.6,0.1,3.8c0.2,0.6,0.5,1.2,0.6,1.8c0.2,0.6,0.2,1.3,0.3,2
		c0.1,0.9,0.5,1.7,0.9,2.4c0.6,0.8,1.4,1.4,2.4,1.7c0.2,1.5,0.5,3,1,4.4c0.4,1.2,1.3,2.2,2.2,3c1.3,1.1,2.9,2,4.6,2.6
		c0.6,0.2,1.3,0.4,1.8,0.9c0.3,0.2,0.5,0.5,0.7,0.7c0.5,0.4,1,0.7,1.5,0.9c1.1,0.5,2.3,0.9,3.6,0.9c0.5,0,1-0.1,1.5,0
		c1.4,0,2.7,0.5,4.1,0.5c0.8,0,1.6-0.2,2.3-0.5c1-0.5,1.9-1.2,2.8-1.8c1-0.6,1.8-1.6,2.5-2.5c0.9-1.3,1.6-2.6,2.1-4
		c0.5-1.3,0.8-2.6,1.3-3.9c1.4-1.7,2.7-3.6,3.3-5.7c0.6-1.5,1.1-3.1,1.6-4.7c1.2-0.4,2.3-1.1,3.1-2c0.4-0.4,0.6-0.9,0.9-1.4
		c-0.1,0.7-0.4,1.4-0.9,1.9c-0.7,0.9-1.6,1.5-2.6,1.9c1.4-0.4,2.8-1,3.7-2.2c-0.6,1.1-1.4,2-2.4,2.7c1.4-0.6,2.5-1.7,3.1-3.1
		c0.5-1.2,0.7-2.5,0.6-3.8c-0.1-1.9-0.5-3.8-1.1-5.5c-1.1-3.1-3-5.9-5.4-8.1c0-1.1,0-2.1-0.3-3.2c-0.2-0.9-0.7-1.9-1.6-2.5
		c-1.4-0.8-3-1.4-4.7-1.7c0.3,0.3,0.7,0.5,1,0.8c-0.5-0.1-1.1-0.3-1.6-0.5c-0.8-0.3-1.6-0.7-2.2-1.3c-0.3-0.3-0.5-0.6-0.6-1
		c0-0.9-0.2-1.6-0.2-2.4c-0.2,0.8-0.1,1.7,0.1,2.5c-0.2-0.4-0.5-0.9-0.8-1.3c-0.7-0.9-1.6-1.7-2.6-2.2c0.8,0.6,1.6,1.4,1.9,2.4
		c-0.4,0-0.8-0.2-1.2-0.4c-0.9-0.5-1.6-1.2-2.2-2C33.7,4,31.6,3.4,29.5,3.5z"/>
	<path class="st0" d="M33.5,7.5c1.1,0,2.3,0.3,3.2,0.9c0.7,0.4,1.3,1,1.7,1.8c-0.6,0.2-1.2,0.2-1.9,0.2c-0.5,0-1-0.1-1.5-0.2
		c1.4,0.4,2.8,0.6,4.2,0.6c-1.5,0.3-3,0.2-4.5,0c-0.7-0.1-1.4-0.4-2.1-0.4c-1.9-0.1-3.7,0.5-5.3,1.5c1-1,2.4-1.6,3.8-1.9
		c1.2-0.2,2.5-0.3,3.8-0.1c-0.2-0.1-0.4-0.1-0.6-0.1c-1-0.2-1.9-0.4-2.9-0.8c-0.4-0.1-0.7-0.3-1.2-0.4c-0.8-0.1-1.6,0.1-2.3,0.4
		C27,9.4,26,10,25,10.7c0.9-0.9,1.8-1.7,2.9-2.3c0.8-0.4,1.7-0.7,2.6-0.7s1.8,0.2,2.6,0.5c0.7,0.3,1.4,0.5,2.2,0.6
		c0.2,0,0.5,0,0.7-0.1C35.3,8.2,34.5,7.7,33.5,7.5z"/>
	<path class="st0" d="M29.2,12.3c0.9-0.6,1.9-1.1,3-1.1c1.7,0,3.4,0.7,5,0.9c1.1,0.2,2.3,0.1,3.4-0.4c-0.9,0.9-2.1,1.4-3.4,1.5
		c-1.3,0.1-2.5,0.6-3.5,1.5c0.4-0.7,1-1.4,1.7-1.7c-1.3,0.2-2.6,0.9-3.4,1.8c-0.8,0.9-1.5,1.9-2.2,2.8c-0.2,0.3-0.4,0.5-0.5,0.8
		c-0.6,1.1-1.5,2-2.6,2.6c0.9-0.1,1.8-0.6,2.5-1.1c0.5-0.4,1-0.9,1.4-1.4c0.4-0.4,0.7-0.9,1-1.3c1.5-1.6,3.5-2.7,5.6-3.1
		c-0.7,0.7-1.7,1-2.6,1.4c1.2,0.1,2.5,0,3.5-0.6c0.9-0.6,1.6-1.4,2.3-2.3c0.5,0.8,1.2,1.5,1.9,2.1c0.6,0.5,1.2,0.9,1.9,1.1
		c0.9,0.3,1.7,0.9,2.3,1.7c0.7,0.8,1.3,1.8,1.9,2.8c0.4,0.7,0.7,1.3,0.9,2.1c0.2,1.3-0.1,2.6-0.8,3.6c0.5-0.4,0.9-0.9,1.1-1.5
		c0.2,1-0.1,2-0.6,2.9c-0.2,0.4-0.5,0.7-0.8,1.1c0.7-0.6,1.3-1.3,1.8-2c-0.3,1.2-0.9,2.4-1.9,3.2c0.6-0.3,1.2-0.6,1.8-0.9
		c-0.8,0.6-1.2,1.6-1.2,2.5c-1.8-0.7-3.8-0.9-5.8-0.9c-0.9,0-1.9,0-2.8,0.3c-0.6,0.2-1,0.6-1.4,1.1c-1.4-0.6-3-0.6-4.5-0.3
		c-0.3-0.8-0.9-1.5-1.7-1.8s-1.6-0.4-2.4-0.4c-1.5-0.1-3.1,0-4.6,0.2c-0.8,0.1-1.6,0.3-2.3,0.7c-0.6,0.3-1,0.8-1.2,1.4
		c-1.2,0-2.4-0.3-3.6-0.5c0.4-1.4,0.8-2.8,0.8-4.3c0-0.5-0.1-1-0.1-1.5c0-1.3,0.2-2.5,0.6-3.7c0.3-1,0.8-2,1.3-2.9
		c0,0.8-0.2,1.6-0.6,2.2c0.9-0.2,1.8-0.7,2.3-1.4c0.2-0.2,0.3-0.5,0.4-0.7c-0.3,1-1.2,1.7-2.1,2.2c1.3-0.3,2.4-1.1,3.2-2.1
		c-0.5,0.8-1.1,1.5-1.9,2c1.2-0.3,2.2-1,3-1.9c1-1.1,2.2-2,3.5-2.7c-0.8,1.9-2.1,3.5-3.7,4.6c1-0.5,1.9-1.1,2.6-1.9
		c-0.8,1.2-2,2.1-3.4,2.6c1.9-0.4,3.7-1.5,4.7-3.2c-0.4,0.5-0.9,1-1.4,1.4c1.3-1.4,2.4-3,3.3-4.7c-1.2,0.8-2,2.1-2.7,3.3
		c0.3-1,0.8-1.9,1.4-2.7c0.7-1,1.6-1.9,2.7-2.5c-1.7,0.7-3.3,1.6-4.6,3c-1.3,1.2-2.8,2.2-4.4,2.9c1.5-0.9,2.9-2.2,4-3.5
		c0.5-0.5,0.8-1.1,1.3-1.6c1.4-1.3,3.4-1.9,5.3-1.8c-1.1-0.4-2.3-0.5-3.4-0.2c-1.3,0.3-2.4,1-3.4,1.9c-0.2,0.2-0.4,0.4-0.6,0.6
		C27.5,13.7,28.3,12.9,29.2,12.3 M27,22c-0.6,0-1.3,0.2-1.9,0.4c0.1-0.1,0.2-0.2,0.3-0.3c-0.6,0.2-1.2,0.4-1.7,0.8
		c-0.3,0.3-0.5,0.7-0.7,1c-0.3,0.7-0.5,1.4-0.7,2.1c0.4-0.6,0.8-1.2,1.4-1.6c-0.5,0.4-0.9,0.9-1.2,1.5c0.6-0.6,1.4-1.2,2.2-1.5
		c1.1-0.4,2.4-0.6,3.6-0.6c-0.1-0.1-0.3-0.2-0.4-0.3c1-0.1,2,0,3,0.3l0,0l0,0H31c0.2,0,0.3,0.1,0.5,0.2c0.3,0.1,0.7,0.1,1,0.1
		c-0.2-0.1-0.4-0.3-0.6-0.4c0.4,0.1,0.7,0.2,1,0.5c-0.2-0.3-0.4-0.6-0.7-0.9c0.4,0.3,0.7,0.6,0.9,0.9c0.1,0,0.2-0.1,0.3-0.1
		c-0.3-0.5-0.7-0.9-1-1.3C32,22.4,31.6,22.1,31,22c-0.8-0.1-1.6-0.1-2.4,0c0.2-0.1,0.4-0.2,0.5-0.4C28.5,21.8,27.8,22,27,22
		 M41.5,22.6c0.2,0.2,0.4,0.3,0.6,0.5c-0.5-0.2-1.1-0.2-1.6,0.1c-0.5,0.4-0.7,0.9-1,1.5c0.4-0.5,0.9-0.8,1.5-1c-0.4,0.3-0.8,0.6-1,1
		c0.8-0.1,1.6-0.3,2.4-0.2c0.6,0,1.1,0.4,1.6,0.6c-0.1-0.1-0.1-0.3-0.1-0.4c0.5,0.7,1.3,1.2,2.1,1.6s1.5,1.1,1.8,1.9
		c0-0.3,0-0.7,0-1c0.1,0.6,0.3,1.2,0.4,1.8c-0.1-1.3-0.2-2.6-0.7-3.8c-0.2-0.5-0.5-1-1-1.3c-0.9-0.5-1.9-0.5-2.9-0.5
		c0.2-0.1,0.3-0.2,0.5-0.3c-0.6,0-1.3,0-1.9-0.1C42,22.8,41.8,22.6,41.5,22.6z"/>
	<path class="st0" d="M48.6,17.8c0.7,0.4,1.3,1,1.8,1.5c0.9,0.9,1.6,2,1.9,3.2c0.3,1,0.2,2.2,0,3.2c-0.3,1.4-1,2.7-2.2,3.5
		c1.3-1.4,1.7-3.4,1.5-5.3c-0.1,1.8-1,3.4-2.2,4.6c0.8-1,1.3-2.2,1.5-3.5c0.2-1.1,0-2.2-0.3-3.2c-0.5-1.3-1.3-2.5-2.3-3.4
		c1.6,0.9,2.8,2.5,3.4,4.2C51.1,20.8,50.1,19,48.6,17.8z"/>
	<path class="st0" d="M17.5,22.3c0.2-0.9,0.6-1.9,1.2-2.7c-0.3,0.7-0.4,1.4-0.4,2.2c-0.1,1.3,0,2.7-0.3,4c-0.2,1.2-0.6,2.4-1.2,3.5
		c0.3-1.4,0.5-2.9,0.6-4.3c-0.7,0.7-1.1,1.7-1.3,2.7c-0.2,1-0.1,1.9,0,2.9c-0.6-1.6-0.8-3.2-0.7-4.9c0.1-1.6,0.6-3.3,1.6-4.6
		c-0.6,1.1-0.7,2.3-0.8,3.5c0,0.4,0,0.8,0,1.2c0.5-0.7,0.8-1.4,1-2.2C17.4,23.2,17.4,22.8,17.5,22.3z"/>
	<path class="st0" d="M11.5,25.9c1-2.2,2.6-4.1,4.6-5.5c-0.8,1-1.5,2.1-2.1,3.2c-0.5,1-1,2.1-1.2,3.3c-0.3,1.4-0.2,2.8,0.2,4.1
		c0.4,1.4,1,2.7,1.9,3.9c-0.9-0.8-1.7-1.7-2.3-2.7c-0.7-1.2-1-2.6-0.9-4c-0.4,1.2-0.4,2.5-0.1,3.7c0.3,1.6,1,3.1,1.8,4.5
		c-1.7-1.5-2.8-3.6-2.9-5.9C10.4,28.9,10.8,27.3,11.5,25.9z"/>
	<path class="st0" d="M52.3,20.8c1.2,1.3,2,2.8,2.7,4.5c0.6,1.7,1,3.6,0.8,5.4c-0.1,1.3-0.6,2.6-1.4,3.6c-0.7,0.9-1.6,1.6-2.6,2.2
		c0.8-0.8,1.6-1.8,2.2-2.8c0.5-0.8,0.9-1.6,1.1-2.5c-0.8,1.9-2,3.5-3.7,4.6c1-1,1.9-2.3,2.5-3.6c0.7-1.7,1-3.7,0.6-5.5
		c0.1,1.8-0.9,3.5-2.2,4.6c-0.5,0.5-1.1,0.8-1.6,1.2c1.1-1.2,2-2.5,2.6-4c0.6-1.3,0.8-2.8,0.6-4.3C53.7,23,53.1,21.8,52.3,20.8z"/>
	<path class="st0" d="M27.5,30.1c1.1-0.1,2.1-0.1,3.2,0c0.7,0.1,1.5,0.1,2.1,0.5c0.5,0.3,0.8,0.8,0.9,1.3c0.3,1.2,0,2.5-0.6,3.6
		c-0.3,0.6-0.8,1.1-1.3,1.4c-0.5,0.3-1.2,0.5-1.8,0.6c-1.5,0.3-3.1,0.3-4.6,0c-0.8-0.2-1.6-0.5-2-1.3c-0.6-0.9-0.8-2-0.7-3
		c0-0.7,0.2-1.5,0.6-2c0.3-0.3,0.7-0.5,1-0.6C25.4,30.3,26.5,30.2,27.5,30.1z"/>
	<path class="st0" d="M49.8,30.2c-0.1,0.5-0.2,0.9-0.3,1.4c-0.1-0.1-0.2-0.1-0.3-0.2C49.4,31,49.6,30.6,49.8,30.2z"/>
	<path class="st0" d="M41.5,31.3c1.4-0.1,2.9-0.1,4.3,0.1c1.1,0.1,2.1,0.3,3.1,0.8c0.6,0.3,0.8,0.9,0.9,1.5c0.2,1.1,0.1,2.2-0.3,3.2
		c-0.2,0.6-0.5,1.1-1,1.4c-0.8,0.5-1.7,0.7-2.6,0.7c-1.1,0.1-2.3-0.1-3.4-0.4c-0.7-0.2-1.4-0.5-1.9-1c-0.9-0.9-1.3-2.1-1.3-3.3
		c0-0.8,0.1-1.6,0.6-2.2C40.2,31.7,40.9,31.4,41.5,31.3z"/>
	<path class="st0" d="M34.7,32.3c1.3-0.2,2.7-0.2,3.9,0.3c-0.4,1.3-0.3,2.7,0.2,4c0.4,1.1,1.1,2,2.2,2.5c1.8,0.8,3.8,1.1,5.7,0.8
		c0.8-0.1,1.5-0.3,2.2-0.7c-0.1,0.3-0.1,0.6-0.2,0.9c-1.4,2.4-2.2,5-2.8,7.6c-0.4,1.4-0.8,2.8-1.5,4.1c-0.6,1.1-1.3,2.1-2,3
		c-0.8,1.1-1.7,2.2-2.8,3c-0.8,0.7-1.8,1.3-2.9,1.5c-0.6,0.1-1.2,0.1-1.8-0.1c-0.5-0.1-1-0.5-1.5-0.6c-0.9-0.2-1.8,0-2.7,0.1
		c-1,0.1-2.1,0.1-3.1-0.3c-1-0.4-1.8-1-2.4-1.8c-0.6-0.7-1.5-1.1-2.3-1.5c-1.3-0.5-2.6-0.8-3.8-1.5c-0.9-0.5-1.5-1.4-2.1-2.2
		c-0.9-1.3-1.6-2.7-2-4.2c-0.2-0.5-0.3-1.1-0.4-1.7c-0.2-0.5-0.2-1.1-0.3-1.6c-0.2,0.5-0.1,1,0,1.5c-0.8-0.2-1.7-0.7-2-1.5
		c-0.5-1.1-0.3-2.4-0.9-3.6c-0.2-0.4-0.4-0.7-0.5-1.2c-0.2-1.1-0.1-2.2,0-3.3c0.3,0.2,0.5,0.4,0.8,0.6c-0.4,0.6-0.5,1.3-0.4,2
		c0.1,0.5,0.5,0.8,0.8,1.1c0.4,0.5,0.5,1.3,1,1.7c0.1,0.1,0.4,0.2,0.5,0c0.2-0.3,0.3-0.8,0.2-1.2c-0.1-0.3-0.3-0.5-0.4-0.8
		c-0.2-0.4-0.2-0.8-0.1-1.1c-0.2,0.2-0.4,0.4-0.4,0.6c-0.1,0.5,0,1,0.2,1.4c-0.3-0.5-0.6-1-1-1.5c-0.2-0.2-0.4-0.4-0.5-0.7
		c-0.2-0.5,0-1.1,0.1-1.6c0.6,0.5,1.3,0.9,1.8,1.5c-0.1-0.4-0.2-0.7-0.4-1.1c0.3,0.3,0.6,0.7,0.9,1.1c0.2,0.3,0.2,0.7,0.2,1.1
		c0.1,1.3,0.1,2.6,0.2,3.9c0.6,0.2,1.2,0.3,1.8,0.5c0.1-1.8,0.2-3.5,0.3-5.3c0.1-0.9,0.2-1.8,0.5-2.7c0.4-1.1,0.8-2.2,1.2-3.4
		c1,0.2,2,0.3,3,0.5c0.3,0,0.5,0,0.8,0c-0.1,1.3,0.1,2.7,0.8,3.8c0.3,0.5,0.8,1,1.3,1.3c1,0.5,2,0.7,3.1,0.8
		c1.5,0.1,3.1-0.1,4.6-0.6c1-0.4,1.8-1.1,2.3-2C34.6,34.9,34.9,33.6,34.7,32.3z"/>
</g>
</svg>
