<?xml version="1.0" standalone="no"?>
<!DOCTYPE svg PUBLIC "-//W3C//DTD SVG 20010904//EN"
 "http://www.w3.org/TR/2001/REC-SVG-20010904/DTD/svg10.dtd">
<svg version="1.0" xmlns="http://www.w3.org/2000/svg"
 width="64.000000pt" height="63.000000pt" viewBox="0 0 64.000000 63.000000"
 preserveAspectRatio="xMidYMid meet">

<g transform="translate(0.000000,63.000000) scale(0.100000,-0.100000)"
fill="#000000" stroke="none">
<path d="M229 597 c-124 -47 -198 -148 -199 -273 0 -80 22 -143 71 -198 140
-159 390 -123 481 69 69 147 12 311 -136 387 -51 26 -165 34 -217 15z m216
-25 c173 -89 208 -311 71 -448 -59 -58 -123 -85 -200 -83 -51 2 -51 2 14 9 83
9 129 29 177 77 60 60 78 105 78 193 0 83 -28 168 -45 140 -5 -8 -10 -11 -10
-6 0 6 -5 5 -11 -1 -8 -8 -20 -2 -45 23 -22 21 -40 31 -50 27 -14 -5 -15 -3
-5 15 16 31 35 27 81 -14 22 -20 40 -32 40 -27 0 13 -36 44 -89 79 -40 26 -53
29 -130 29 -73 0 -92 -4 -126 -24 -47 -29 -95 -71 -95 -84 0 -6 8 -3 18 6 14
13 19 13 29 2 9 -10 9 -16 2 -20 -6 -4 -8 -14 -4 -23 5 -13 2 -12 -15 3 -11
10 -20 14 -20 9 0 -5 -4 -3 -9 5 -15 24 -43 -45 -52 -129 l-8 -75 3 75 c3 85
20 125 75 183 63 67 117 88 216 83 46 -2 84 -10 110 -24z m-140 0 c-13 -9 -18
-35 -5 -27 5 3 10 1 10 -4 0 -6 -9 -11 -20 -11 -15 0 -20 7 -20 25 0 19 5 25
23 25 12 0 18 -4 12 -8z m65 -4 c0 -7 -12 -21 -25 -31 -25 -18 -25 -18 -25 6
0 13 3 27 7 30 11 12 43 8 43 -5z m-115 -8 c4 -6 2 -17 -4 -24 -9 -11 -1 -14
39 -19 50 -6 88 1 89 16 1 4 1 14 1 22 0 8 8 15 18 15 30 0 34 -13 10 -27 -13
-7 -17 -12 -10 -13 6 0 12 -4 12 -9 0 -8 -60 -22 -87 -20 -7 0 -33 1 -57 2
-24 1 -43 4 -41 6 3 2 0 12 -6 23 -5 10 -7 23 -4 28 8 13 32 13 40 0z m-49
-51 c-4 -28 7 -39 19 -19 9 15 69 12 91 -5 18 -13 16 -14 -27 -15 -29 0 -51
-6 -59 -15 -8 -9 -9 -15 -2 -15 6 0 14 5 17 10 3 6 21 10 40 10 19 0 37 -4 40
-10 4 -6 -5 -10 -20 -10 -33 0 -68 -18 -60 -31 4 -5 3 -9 -2 -8 -18 3 -33 -2
-33 -11 0 -14 44 -12 59 3 10 10 12 8 9 -8 -2 -13 -10 -19 -23 -17 -14 3 -10
-4 14 -22 42 -31 40 -31 90 -5 26 13 52 19 78 16 l38 -4 -43 -1 c-52 -2 -54
-27 -3 -28 20 0 37 -7 43 -17 24 -43 -129 -47 -203 -5 -37 20 -40 21 -56 5
-16 -15 -15 -18 13 -42 16 -14 54 -33 84 -43 l55 -17 -40 -3 c-22 -2 -57 1
-78 8 -51 15 -107 66 -107 97 0 14 -4 22 -10 18 -13 -8 -2 44 13 63 8 11 12
11 18 0 6 -9 9 -6 9 10 0 28 -4 28 -30 0 -11 -12 -20 -17 -20 -11 0 7 7 19 16
28 27 27 64 85 54 85 -5 0 -12 -5 -15 -10 -5 -8 -12 -7 -22 2 -13 11 -12 15
13 35 34 27 46 21 40 -18z m212 -21 c20 -20 14 -26 -22 -24 -39 3 -59 14 -51
27 9 13 59 11 73 -3z m85 -63 c13 -24 16 -165 3 -157 -5 3 -6 -2 -3 -12 4 -9
3 -15 -2 -12 -5 3 -11 -1 -15 -9 -3 -10 5 -20 24 -30 34 -18 39 -35 10 -35
-14 0 -18 -5 -13 -17 6 -16 4 -16 -16 2 -21 18 -21 20 -5 32 10 7 16 13 13 14
-2 0 -12 2 -21 4 -9 2 -25 -7 -35 -18 -18 -21 -18 -21 2 -7 18 14 19 14 7 -1
-12 -16 -52 -15 -52 0 0 4 17 18 38 31 50 31 63 58 47 96 -10 25 -9 33 9 57
l20 27 -21 28 c-16 22 -28 27 -59 26 -24 -1 -28 1 -11 3 31 5 31 6 16 36 -9
18 -5 16 21 -8 17 -16 37 -39 43 -50z m-379 -4 c-4 -9 -7 -32 -6 -51 0 -19 -2
-30 -6 -25 -4 6 -16 11 -27 13 -11 2 -16 -1 -10 -5 11 -9 19 -43 10 -43 -3 0
-10 12 -16 27 -15 40 14 113 42 106 14 -4 18 -10 13 -22z m450 -69 c-4 -10 -6
-23 -5 -31 1 -7 -2 -10 -8 -6 -15 9 -14 32 2 39 6 3 3 4 -8 3 -13 -1 -22 -12
-26 -32 -5 -21 -6 -14 -6 25 1 30 -2 62 -7 72 -5 12 -2 17 11 20 22 5 59 -64
47 -90z m-181 47 c9 0 17 -7 17 -16 0 -10 -6 -14 -20 -10 -11 3 -26 0 -33 -7
-18 -18 -36 -8 -29 16 3 14 1 19 -6 14 -7 -4 -12 -2 -12 5 0 7 11 9 33 5 17
-4 40 -7 50 -7z m96 -2 c12 -15 5 -27 -16 -27 -7 0 -13 7 -13 16 0 8 -4 12
-10 9 -5 -3 -10 -1 -10 4 0 16 35 14 49 -2z m-182 -43 c-3 -3 -12 -4 -19 -1
-8 3 -5 6 6 6 11 1 17 -2 13 -5z m-191 -89 c0 -24 -7 -50 -13 -56 -10 -10 -16
-5 -28 24 -8 20 -15 43 -15 51 0 15 31 17 42 1 4 -6 8 -2 8 8 0 9 2 17 4 17 2
0 3 -20 2 -45z m145 29 c27 -24 139 -40 185 -26 29 9 34 8 25 -1 -18 -18 -149
-14 -190 6 -18 9 -37 14 -42 11 -5 -3 -9 2 -9 10 0 20 9 20 31 0z m319 -11 c0
-21 -28 -83 -37 -83 -14 0 -32 22 -28 34 20 55 25 62 44 62 12 0 21 -6 21 -13z
m-443 -65 c-2 -7 12 -28 32 -46 32 -30 34 -33 19 -48 -19 -19 -38 -11 -38 16
0 14 -5 18 -17 13 -13 -5 -15 -2 -10 11 5 12 3 16 -5 14 -7 -3 -13 -11 -13
-18 0 -18 77 -78 82 -64 2 6 10 20 18 30 12 17 15 17 29 4 13 -13 13 -17 0
-35 -13 -17 -16 -18 -24 -5 -9 14 -14 7 -11 -13 2 -14 -53 21 -80 50 -34 36
-59 75 -59 88 1 5 8 -3 16 -19 l16 -28 19 31 c19 31 34 42 26 19z m88 -58 c3
-6 -1 -7 -9 -4 -18 7 -21 14 -7 14 6 0 13 -4 16 -10z m253 -12 c7 -7 12 -16
12 -20 0 -15 -15 -8 -28 12 -13 22 -3 27 16 8z m-88 -8 c-8 -5 -26 -9 -40 -9
-23 1 -23 2 5 9 43 11 52 11 35 0z m-87 -7 c-7 -2 -19 -2 -25 0 -7 3 -2 5 12
5 14 0 19 -2 13 -5z m157 -13 c0 -24 -26 -38 -42 -22 -16 16 -2 42 22 42 13 0
20 -7 20 -20z m-193 -20 c-3 -11 -1 -20 4 -20 5 0 9 -4 9 -10 0 -5 -7 -7 -15
-4 -15 6 -20 35 -8 47 12 12 15 7 10 -13z m74 -7 c-10 -38 -51 -45 -51 -9 0
19 6 26 28 29 15 2 28 5 29 6 1 0 -2 -11 -6 -26z m52 20 c-19 -7 -16 -21 5
-26 16 -4 16 -4 -1 -12 -11 -4 -23 -3 -29 3 -15 15 -2 42 19 41 11 0 13 -3 6
-6z m-148 -53 c13 -6 15 -9 5 -9 -8 0 -22 4 -30 9 -18 12 -2 12 25 0z"/>
<path d="M480 490 c0 -5 5 -10 10 -10 6 0 10 5 10 10 0 6 -4 10 -10 10 -5 0
-10 -4 -10 -10z"/>
<path d="M181 462 c-17 -31 -13 -40 5 -14 9 13 14 26 11 29 -3 2 -10 -4 -16
-15z"/>
<path d="M80 260 c0 -5 5 -10 10 -10 6 0 10 5 10 10 0 6 -4 10 -10 10 -5 0
-10 -4 -10 -10z"/>
<path d="M540 260 c0 -5 5 -10 10 -10 6 0 10 5 10 10 0 6 -4 10 -10 10 -5 0
-10 -4 -10 -10z"/>
<path d="M165 140 c-3 -5 -1 -10 4 -10 6 0 11 5 11 10 0 6 -2 10 -4 10 -3 0
-8 -4 -11 -10z"/>
<path d="M425 120 c-3 -5 1 -10 10 -10 9 0 13 5 10 10 -3 6 -8 10 -10 10 -2 0
-7 -4 -10 -10z"/>
<path d="M310 90 c0 -5 5 -10 11 -10 5 0 7 5 4 10 -3 6 -8 10 -11 10 -2 0 -4
-4 -4 -10z"/>
</g>
</svg>
