<svg width="64" height="64" viewBox="0 0 64 64" fill="none" xmlns="http://www.w3.org/2000/svg">
<path d="M0 0H64V64H0V0Z" fill="url(#paint0_linear_1241_1299)"/>
<g clip-path="url(#clip0_1241_1299)">
<path fill-rule="evenodd" clip-rule="evenodd" d="M49.7784 28.2959C52.0428 29.6005 52.0559 32.8636 49.802 34.1862L33.0181 44.0359H26.5517C25.3939 44.0359 24.4552 44.9746 24.4552 46.1325V46.2897V49.0612V50.7449C24.4552 51.9028 23.5165 52.8414 22.3586 52.8414H17.9035C16.7456 52.8414 15.8069 51.9028 15.8069 50.7449V48.6341C15.7896 48.4935 15.7807 48.3494 15.7807 48.2022V46.848L15.8069 46.8298V46.2897C15.8069 45.1318 16.7456 44.1932 17.9035 44.1932H19.9694C20.0752 44.1768 20.1826 44.1684 20.2906 44.1684H22.3586C23.5165 44.1684 24.4552 43.2298 24.4552 42.0719V41.887V38.5928V37.6939C24.4552 36.536 25.3939 35.5973 26.5517 35.5973H30.9095C32.064 35.5933 32.9986 34.6562 32.9986 33.5008V29.0456C32.9986 27.8877 32.0599 26.949 30.9021 26.949H26.4469C25.289 26.949 24.3503 27.8877 24.3503 29.0456V32.6838L24.2979 32.9043V33.3435C24.2979 34.5014 23.3593 35.4401 22.2014 35.4401H22.0459H22.0386H19.5819H19.5746H17.851C16.6931 35.4401 15.7545 34.5014 15.7545 33.3435V28.9932C15.7545 28.8801 15.7634 28.769 15.7807 28.6608V14.6037C15.7807 11.9825 18.6171 10.3431 20.8883 11.6517L49.7784 28.2959Z" fill="#FEEAE3"/>
</g>
<defs>
<linearGradient id="paint0_linear_1241_1299" x1="32" y1="0" x2="32" y2="64" gradientUnits="userSpaceOnUse">
<stop stop-color="#EA4393"/>
<stop offset="1" stop-color="#EC724D"/>
</linearGradient>
<clipPath id="clip0_1241_1299">
<rect width="41.931" height="41.931" fill="white" transform="translate(12.1379 11.0345)"/>
</clipPath>
</defs>
</svg>
