<?xml version="1.0" standalone="no"?>
<!DOCTYPE svg PUBLIC "-//W3C//DTD SVG 20010904//EN"
 "http://www.w3.org/TR/2001/REC-SVG-20010904/DTD/svg10.dtd">
<svg version="1.0" xmlns="http://www.w3.org/2000/svg"
 width="64.000000pt" height="64.000000pt" viewBox="0 0 64.000000 64.000000"
 preserveAspectRatio="xMidYMid meet">

<g transform="translate(0.000000,64.000000) scale(0.100000,-0.100000)"
fill="#000000" stroke="none">
<path d="M212 554 c-116 -58 -169 -186 -130 -316 15 -50 79 -123 130 -149 86
-44 197 -33 275 26 68 53 115 176 97 257 -6 29 -8 31 -16 13 -6 -16 -7 -14 -4
10 2 16 -2 41 -9 56 -17 31 -88 97 -119 108 -31 12 -76 3 -69 -15 3 -8 -2 -17
-11 -20 -19 -7 -11 -24 11 -24 9 0 13 3 10 6 -11 12 13 43 28 37 13 -5 13 -7
-2 -19 -11 -8 -13 -13 -5 -14 6 0 12 -5 12 -11 0 -8 -14 -10 -42 -6 -24 3 -52
1 -63 -3 -15 -7 -16 -9 -4 -9 9 -1 21 -7 27 -14 9 -10 4 -12 -21 -9 -19 2 -40
-3 -52 -12 -19 -14 -18 -15 12 -4 23 9 37 9 55 1 23 -12 23 -12 -5 -12 -47 -1
-117 -51 -72 -51 8 0 15 -4 15 -9 0 -5 13 -19 29 -31 l30 -20 40 21 c50 26 52
33 6 25 -29 -6 -34 -4 -29 9 4 9 1 15 -7 15 -9 0 -10 3 -2 11 8 8 17 8 33 -1
12 -6 28 -9 36 -6 18 7 19 -25 2 -42 -17 -17 4 -31 36 -25 29 6 43 -23 18 -35
-9 -5 -46 -12 -82 -15 -40 -4 -57 -2 -45 3 20 8 20 9 -1 9 -11 1 -29 8 -40 16
-24 18 -50 19 -57 1 -8 -20 25 -46 85 -68 l53 -19 -63 4 c-72 4 -107 24 -136
81 -14 26 -22 33 -28 24 -6 -8 -7 -5 -3 10 5 18 2 22 -14 22 -13 0 -21 6 -21
16 0 10 6 14 15 10 8 -3 15 -1 15 3 0 5 -5 11 -12 13 -8 3 -5 16 11 42 18 28
26 34 36 26 11 -9 10 -17 -6 -45 -14 -23 -18 -42 -13 -57 l7 -23 8 23 c5 14
13 20 20 16 7 -4 9 -3 5 4 -3 5 -3 12 1 14 5 1 15 16 23 33 9 16 27 35 40 42
17 8 19 13 9 13 -20 0 -33 41 -16 52 9 6 8 8 -3 8 -8 1 -4 6 10 11 26 11 81 3
64 -9 -15 -11 -14 -30 1 -36 11 -4 15 2 15 19 0 19 7 27 33 34 28 8 24 9 -34
10 -51 1 -76 -4 -117 -25z m-8 -23 c-18 -11 -36 -25 -40 -33 -5 -7 4 -5 21 6
27 18 29 18 41 1 11 -15 10 -22 -9 -46 -12 -15 -30 -40 -40 -54 -20 -28 -32
-29 -21 -1 3 9 10 13 15 10 5 -3 9 -2 10 3 0 4 2 16 4 26 5 26 -23 51 -42 36
-20 -17 -41 -61 -52 -106 -7 -30 -9 -32 -10 -12 -2 42 48 128 92 160 22 16 45
29 51 29 6 0 -3 -9 -20 -19z m284 -17 c24 -20 49 -49 57 -65 25 -47 17 -46
-14 2 -16 25 -45 56 -65 68 -20 13 -36 25 -36 27 0 12 21 0 58 -32z m0 -29
c31 -29 35 -36 22 -45 -13 -9 -12 -10 4 -8 23 4 52 -67 36 -87 -5 -6 -7 -15
-3 -19 4 -4 1 -11 -7 -16 -13 -8 -12 -10 3 -10 14 0 17 -5 13 -20 -16 -56 -17
-65 -7 -50 6 8 11 10 11 4 0 -33 -112 -145 -145 -144 -5 1 1 7 15 15 19 11 21
14 7 15 -9 0 -26 -6 -37 -12 -14 -9 -23 -9 -30 -2 -15 15 -2 44 19 43 10 0 11
-2 4 -6 -7 -2 -13 -11 -13 -19 0 -7 6 -11 14 -8 17 7 27 52 13 57 -6 2 -3 6 7
10 9 4 15 3 12 -2 -3 -5 1 -11 9 -15 8 -3 15 -14 15 -25 0 -14 5 -19 16 -14
13 5 12 9 -7 29 -12 13 -17 24 -11 24 7 0 17 -9 24 -20 11 -18 14 -18 30 -3
22 20 23 33 2 33 -8 0 -12 -4 -9 -10 10 -15 -11 -12 -24 4 -7 9 -24 13 -42 11
-38 -5 -37 5 6 34 39 26 52 59 36 89 -8 15 -7 23 3 31 14 12 28 74 15 66 -4
-3 -12 2 -18 9 -7 9 -26 13 -44 12 -18 -2 -22 -1 -9 1 18 4 22 9 16 26 -6 20
-3 19 27 -8 18 -16 28 -23 21 -13 -10 13 -10 17 0 21 7 2 9 8 5 13 -4 5 -12 3
-16 -4 -6 -10 -10 -10 -20 2 -7 8 -19 12 -26 10 -10 -4 -12 0 -8 15 8 30 28
26 71 -14z m-68 -21 c12 -12 9 -14 -22 -14 -21 0 -41 6 -45 14 -4 7 -15 16
-23 19 -8 3 5 3 30 0 25 -3 52 -12 60 -19z m60 -79 c0 -8 -7 -15 -15 -15 -8 0
-15 7 -15 15 0 8 7 15 15 15 8 0 15 -7 15 -15z m-190 -4 c0 -6 -4 -12 -8 -15
-5 -3 -9 1 -9 9 0 8 4 15 9 15 4 0 8 -4 8 -9z m287 -73 c-2 -13 -4 -3 -4 22 0
25 2 35 4 23 2 -13 2 -33 0 -45z m-460 20 c0 -13 -1 -17 -4 -10 -3 6 -10 9
-16 5 -7 -4 -6 1 2 10 17 21 17 21 18 -5z m28 -58 c-1 -22 -5 -43 -9 -47 -10
-11 -25 10 -32 44 -5 27 -3 32 17 36 13 2 25 5 25 6 1 0 0 -17 -1 -39z m139
25 c11 -8 16 -15 10 -15 -5 0 -18 7 -28 15 -11 8 -16 15 -10 15 5 0 18 -7 28
-15z m-197 -27 c-3 -7 -5 -2 -5 12 0 14 2 19 5 13 2 -7 2 -19 0 -25z m378 12
c-3 -5 -12 -10 -18 -10 -7 0 -6 4 3 10 19 12 23 12 15 0z m102 -22 c-3 -8 -6
-5 -6 6 -1 11 2 17 5 13 3 -3 4 -12 1 -19z m-149 5 c-10 -2 -28 -2 -40 0 -13
2 -5 4 17 4 22 1 32 -1 23 -4z m-278 -49 c7 15 18 26 23 26 6 0 8 -3 4 -6 -9
-9 36 -55 50 -50 8 3 10 -1 6 -12 -6 -15 -5 -16 13 -2 10 8 16 10 12 6 -4 -5
-3 -15 2 -21 6 -7 8 -20 4 -29 -7 -18 -24 -22 -24 -5 0 5 -5 7 -10 4 -6 -4 -7
-12 -3 -18 4 -6 -9 -2 -28 10 -34 22 -99 105 -99 127 1 6 9 -4 18 -22 l18 -33
14 25z m208 -61 c-10 -2 -26 -2 -35 0 -10 3 -2 5 17 5 19 0 27 -2 18 -5z m-70
-52 c-15 -5 -18 3 -11 29 l7 25 6 -25 c3 -14 2 -27 -2 -29z m67 29 c8 -13 -13
-40 -31 -40 -8 0 -14 10 -14 25 0 18 5 25 19 25 11 0 23 -5 26 -10z m-56 -46
c10 -9 -35 -3 -49 6 -11 8 -7 9 15 4 17 -4 32 -8 34 -10z m108 0 c-3 -3 -12
-4 -19 -1 -8 3 -5 6 6 6 11 1 17 -2 13 -5z m-54 -11 c-7 -2 -19 -2 -25 0 -7 3
-2 5 12 5 14 0 19 -2 13 -5z"/>
<path d="M204 474 c-18 -14 -18 -15 4 -4 12 6 22 13 22 15 0 8 -5 6 -26 -11z"/>
<path d="M499 339 c-4 -52 -10 -74 -31 -101 -26 -35 -27 -35 -5 -34 12 1 21 7
19 14 -2 10 3 10 18 2 11 -6 20 -15 20 -21 0 -6 5 -7 10 -4 15 9 12 25 -5 25
-25 0 -28 25 -7 69 11 23 15 38 9 34 -7 -3 -3 4 8 17 14 16 16 22 5 18 -9 -3
-19 5 -26 21 -10 23 -11 19 -15 -40z"/>
<path d="M520 390 c0 -5 5 -10 10 -10 6 0 10 5 10 10 0 6 -4 10 -10 10 -5 0
-10 -4 -10 -10z"/>
<path d="M525 270 c-3 -5 -1 -10 4 -10 6 0 11 5 11 10 0 6 -2 10 -4 10 -3 0
-8 -4 -11 -10z"/>
<path d="M420 140 c0 -5 5 -10 10 -10 6 0 10 5 10 10 0 6 -4 10 -10 10 -5 0
-10 -4 -10 -10z"/>
<path d="M110 270 c0 -5 5 -10 10 -10 6 0 10 5 10 10 0 6 -4 10 -10 10 -5 0
-10 -4 -10 -10z"/>
<path d="M141 173 c16 -22 52 -52 60 -53 4 0 9 6 12 13 3 9 -3 13 -17 13 -14
-1 -21 5 -19 17 0 12 -4 16 -13 13 -8 -3 -14 -1 -14 4 0 6 -5 10 -11 10 -8 0
-7 -6 2 -17z"/>
<path d="M190 159 c0 -5 5 -7 10 -4 6 3 10 8 10 11 0 2 -4 4 -10 4 -5 0 -10
-5 -10 -11z"/>
<path d="M270 560 c-1 -3 -3 -17 -4 -32 -1 -22 3 -28 17 -28 14 0 17 3 9 13
-5 6 -12 21 -15 32 -2 11 -6 18 -7 15z"/>
</g>
</svg>
